<svg width="82" height="67" viewBox="0 0 82 67" fill="none" xmlns="http://www.w3.org/2000/svg">
<path d="M55.0828 53.1471L74.2325 1.77033H66.8936V0H82V1.94115H77.753L56.8667 57.8682L46.0637 30.0878L34.9535 1.94112L17.9681 1.77033V0H66.8936V1.77033L34.9535 1.94112L46.1406 30.1246L55.0828 53.1471Z" fill="url(#paint0_linear)" fill-opacity="0.47"/>
<path d="M40.0813 65.2297L33.2129 45.1038H14.5836L7.33884 65.2297H33.4011V67H0V65.2297H4.42212L27.4395 1.86548L34.9535 1.94112L59.6889 65.2297H64.1678V67H33.4011V65.2297H40.0813ZM24.2746 18.6421L15.4304 43.054H32.4602L24.2746 18.6421Z" fill="url(#paint1_linear)" fill-opacity="0.47"/>
<defs>
<linearGradient id="paint0_linear" x1="59.0887" y1="66.9528" x2="19.8646" y2="-4.28259" gradientUnits="userSpaceOnUse">
<stop stop-color="#C428DD"/>
<stop offset="1" stop-color="#3C43DF"/>
</linearGradient>
<linearGradient id="paint1_linear" x1="59.0887" y1="66.9528" x2="19.8646" y2="-4.28259" gradientUnits="userSpaceOnUse">
<stop stop-color="#C428DD"/>
<stop offset="1" stop-color="#3C43DF"/>
</linearGradient>
</defs>
</svg>
