<svg width="186" height="34" viewBox="0 0 186 34" fill="none" xmlns="http://www.w3.org/2000/svg">
<path d="M164.817 26.6992C164.598 26.6992 164.391 26.791 164.254 26.9485C163.875 27.3889 161.983 29.648 161.983 30.8805C161.983 32.3078 163.254 33.4688 164.817 33.4688C166.379 33.4688 167.65 32.3077 167.65 30.8805C167.65 29.648 165.758 27.3888 165.378 26.9485C165.242 26.791 165.036 26.6992 164.817 26.6992ZM164.817 32.1613C164.043 32.1613 163.413 31.5867 163.413 30.8805C163.413 30.4644 164.07 29.4132 164.817 28.4467C165.564 29.4132 166.22 30.4643 166.22 30.8805C166.22 31.5867 165.591 32.1613 164.817 32.1613Z" fill="#340B77"/>
<path d="M168.752 6.14106H167.812L168.357 3.35878C168.364 3.32079 168.367 3.28229 168.367 3.24373C168.367 1.45517 166.775 0 164.817 0C162.859 0 161.265 1.45517 161.265 3.24379C161.265 3.28236 161.269 3.32085 161.276 3.35884L161.821 6.14112H160.882C160.487 6.14112 160.167 6.43378 160.167 6.79482V9.8023C160.167 10.1633 160.487 10.456 160.882 10.456H162.281V21.6869C162.281 21.7295 162.285 21.7719 162.294 21.8136L163.015 25.1476C163.081 25.4538 163.375 25.6746 163.716 25.6746H165.917C166.258 25.6746 166.553 25.4538 166.619 25.1476L167.339 21.8136C167.348 21.7719 167.352 21.7295 167.352 21.6869V10.4559H168.752C169.146 10.4559 169.467 10.1633 169.467 9.80222V6.79474C169.467 6.43371 169.146 6.14106 168.752 6.14106ZM162.696 3.18992C162.727 2.14697 163.667 1.30737 164.817 1.30737C165.967 1.30737 166.906 2.14697 166.937 3.18992L166.359 6.14106H163.273L162.696 3.18992ZM165.922 21.6229L165.329 24.3671H164.304L163.711 21.6229V10.4559H165.922V21.6229ZM168.037 9.14854H161.597V7.44843H168.037V9.14854Z" fill="#340B77"/>
<path d="M1.45328 32.1257H0.30008C0.0272799 32.1257 -0.0595199 31.9728 0.0396799 31.6668L7.44248 7.99C7.51688 7.684 7.69048 7.531 7.96328 7.531H9.71168C9.95968 7.531 10.1333 7.684 10.2325 7.99L17.6353 31.6668C17.7097 31.9728 17.6229 32.1257 17.3749 32.1257H16.1845C15.9365 32.1257 15.7753 31.9728 15.7009 31.6668L13.6921 25.5468H3.94568L1.93688 31.6668C1.83768 31.9728 1.67648 32.1257 1.45328 32.1257ZM8.74448 9.63475L4.46648 23.8255H13.2085L8.89328 9.63475H8.74448ZM22.9996 32.1257H21.9208C21.6728 32.1257 21.5488 31.9728 21.5488 31.6668V13.0772C21.5488 12.7712 21.6728 12.6183 21.9208 12.6183H22.9996C23.2724 12.6183 23.4088 12.7712 23.4088 13.0772V14.6073H23.5576C24.252 13.2812 25.5416 12.6183 27.4264 12.6183H29.8816C31.4688 12.6183 32.7212 13.1028 33.6388 14.0718C34.5564 15.0408 35.0152 16.3668 35.0152 18.0498V31.6668C35.0152 31.9728 34.8912 32.1257 34.6432 32.1257H33.5644C33.2916 32.1257 33.1552 31.9728 33.1552 31.6668V18.1262C33.1552 16.9277 32.8576 15.997 32.2624 15.334C31.6672 14.671 30.7992 14.3395 29.6584 14.3395H27.2404C26.05 14.3395 25.1076 14.671 24.4132 15.334C23.7436 15.9715 23.4088 16.8895 23.4088 18.088V31.6668C23.4088 31.9728 23.2724 32.1257 22.9996 32.1257ZM41.8539 32.1257H40.7751C40.5271 32.1257 40.4031 31.9728 40.4031 31.6668V13.0772C40.4031 12.7712 40.5271 12.6183 40.7751 12.6183H41.8539C42.1267 12.6183 42.2631 12.7712 42.2631 13.0772V14.6073H42.4119C43.1063 13.2812 44.3959 12.6183 46.2807 12.6183H48.7359C50.3231 12.6183 51.5755 13.1028 52.4931 14.0718C53.4107 15.0408 53.8695 16.3668 53.8695 18.0498V31.6668C53.8695 31.9728 53.7455 32.1257 53.4975 32.1257H52.4187C52.1459 32.1257 52.0095 31.9728 52.0095 31.6668V18.1262C52.0095 16.9277 51.7119 15.997 51.1167 15.334C50.5215 14.671 49.6535 14.3395 48.5127 14.3395H46.0947C44.9043 14.3395 43.9619 14.671 43.2675 15.334C42.5979 15.9715 42.2631 16.8895 42.2631 18.088V31.6668C42.2631 31.9728 42.1267 32.1257 41.8539 32.1257ZM66.4742 32.1257H64.0934C62.4814 32.1257 61.2042 31.6413 60.2618 30.6723C59.3442 29.7033 58.8854 28.3773 58.8854 26.6943V18.0498C58.8854 16.3668 59.3442 15.0408 60.2618 14.0718C61.2042 13.1028 62.4814 12.6183 64.0934 12.6183H71.9798C72.2278 12.6183 72.3518 12.7712 72.3518 13.0772V31.6668C72.3518 31.9728 72.2278 32.1257 71.9798 32.1257H70.901C70.6282 32.1257 70.4918 31.9728 70.4918 31.6668V30.1368H70.343C69.6982 31.4627 68.4086 32.1257 66.4742 32.1257ZM70.4918 26.656V14.6838C70.4918 14.4542 70.3678 14.3395 70.1198 14.3395H64.2422C63.1014 14.3395 62.2334 14.671 61.6382 15.334C61.043 15.997 60.7454 16.9277 60.7454 18.1262V26.6178C60.7454 27.8162 61.043 28.747 61.6382 29.41C62.2334 30.073 63.1014 30.4045 64.2422 30.4045H66.6602C67.8506 30.4045 68.7806 30.0857 69.4502 29.4482C70.1446 28.7852 70.4918 27.8545 70.4918 26.656ZM85.2957 32.1257H83.5845C83.3365 32.1257 83.1753 31.9728 83.1009 31.6668L76.1817 7.99C76.0825 7.684 76.1941 7.531 76.5165 7.531H77.6697C77.9177 7.531 78.0789 7.684 78.1533 7.99L84.3657 29.7542H84.5145L90.7269 7.99C90.8013 7.684 90.9625 7.531 91.2105 7.531H92.3637C92.6613 7.531 92.7729 7.684 92.6985 7.99L85.7793 31.6668C85.7049 31.9728 85.5437 32.1257 85.2957 32.1257ZM96.7161 9.40525V5.73325C96.7161 5.45275 96.8401 5.3125 97.0881 5.3125H98.2041C98.4521 5.3125 98.5761 5.45275 98.5761 5.73325V9.40525C98.5761 9.71125 98.4521 9.86425 98.2041 9.86425H97.0881C96.8401 9.86425 96.7161 9.71125 96.7161 9.40525ZM96.7161 31.6668V13.0772C96.7161 12.7712 96.8401 12.6183 97.0881 12.6183H98.1669C98.4397 12.6183 98.5761 12.7712 98.5761 13.0772V31.6668C98.5761 31.9728 98.4521 32.1257 98.2041 32.1257H97.0881C96.8401 32.1257 96.7161 31.9728 96.7161 31.6668ZM114.943 30.8252V31.705C114.943 31.9855 114.806 32.1257 114.534 32.1257H109.177C107.565 32.1257 106.288 31.6413 105.345 30.6723C104.428 29.7033 103.969 28.3773 103.969 26.6943V18.0498C103.969 16.3668 104.428 15.0408 105.345 14.0718C106.288 13.1028 107.565 12.6183 109.177 12.6183H114.534C114.806 12.6183 114.943 12.7585 114.943 13.039V13.957C114.943 14.212 114.806 14.3395 114.534 14.3395H109.326C108.185 14.3395 107.317 14.671 106.722 15.334C106.126 15.997 105.829 16.9277 105.829 18.1262V26.6178C105.829 27.8162 106.126 28.747 106.722 29.41C107.317 30.073 108.185 30.4045 109.326 30.4045H114.534C114.806 30.4045 114.943 30.5447 114.943 30.8252ZM119.8 14.3395H117.53C117.258 14.3395 117.121 14.212 117.121 13.957V13.039C117.121 12.7585 117.258 12.6183 117.53 12.6183H119.8C120.023 12.6183 120.134 12.5035 120.134 12.274V9.17575C120.134 8.86975 120.271 8.71675 120.544 8.71675H121.622C121.895 8.71675 122.032 8.86975 122.032 9.17575V12.274C122.032 12.5035 122.143 12.6183 122.366 12.6183H126.793C127.066 12.6183 127.202 12.7585 127.202 13.039V13.957C127.202 14.212 127.066 14.3395 126.793 14.3395H122.366C122.143 14.3395 122.032 14.4542 122.032 14.6838V26.7325C122.032 27.9055 122.354 28.8107 122.999 29.4482C123.644 30.0857 124.549 30.4045 125.714 30.4045H127.165C127.438 30.4045 127.574 30.5447 127.574 30.8252V31.705C127.574 31.9855 127.438 32.1257 127.165 32.1257H125.566C123.929 32.1257 122.614 31.654 121.622 30.7105C120.63 29.767 120.134 28.4665 120.134 26.809V14.6838C120.134 14.4542 120.023 14.3395 119.8 14.3395ZM139.912 32.1257H136.713C135.101 32.1257 133.824 31.6413 132.882 30.6723C131.964 29.7033 131.505 28.3773 131.505 26.6943V18.0498C131.505 16.3668 131.964 15.0408 132.882 14.0718C133.824 13.1028 135.101 12.6183 136.713 12.6183H139.912C141.524 12.6183 142.802 13.1028 143.744 14.0718C144.686 15.0408 145.158 16.3668 145.158 18.0498V26.6943C145.158 28.3773 144.686 29.7033 143.744 30.6723C142.802 31.6413 141.524 32.1257 139.912 32.1257ZM136.862 30.4045H139.764C140.904 30.4045 141.772 30.0857 142.368 29.4482C142.988 28.7852 143.298 27.8545 143.298 26.656V18.088C143.298 16.8895 142.988 15.9715 142.368 15.334C141.772 14.671 140.904 14.3395 139.764 14.3395H136.862C135.721 14.3395 134.853 14.671 134.258 15.334C133.663 15.9715 133.365 16.8895 133.365 18.088V26.656C133.365 27.8545 133.663 28.7852 134.258 29.4482C134.853 30.0857 135.721 30.4045 136.862 30.4045ZM151.783 32.1257H150.704C150.456 32.1257 150.332 31.9728 150.332 31.6668V13.0772C150.332 12.7712 150.456 12.6183 150.704 12.6183H151.783C152.056 12.6183 152.192 12.7712 152.192 13.0772V14.6838H152.341C152.614 14.1482 153.098 13.6765 153.792 13.2685C154.486 12.835 155.342 12.6183 156.359 12.6183H157.81C158.082 12.6183 158.219 12.7585 158.219 13.039V13.957C158.219 14.2375 158.082 14.365 157.81 14.3395H156.061C154.846 14.3395 153.891 14.722 153.197 15.487C152.527 16.252 152.192 17.2848 152.192 18.5853V31.6668C152.192 31.9728 152.056 32.1257 151.783 32.1257ZM179.127 32.1257H176.747C175.135 32.1257 173.857 31.6413 172.915 30.6723C171.997 29.7033 171.539 28.3773 171.539 26.6943V18.0498C171.539 16.3668 171.997 15.0408 172.915 14.0718C173.857 13.1028 175.135 12.6183 176.747 12.6183H184.633C184.881 12.6183 185.005 12.7712 185.005 13.0772V31.6668C185.005 31.9728 184.881 32.1257 184.633 32.1257H183.554C183.281 32.1257 183.145 31.9728 183.145 31.6668V30.1368H182.996C182.351 31.4627 181.062 32.1257 179.127 32.1257ZM183.145 26.656V14.6838C183.145 14.4542 183.021 14.3395 182.773 14.3395H176.895C175.755 14.3395 174.887 14.671 174.291 15.334C173.696 15.997 173.399 16.9277 173.399 18.1262V26.6178C173.399 27.8162 173.696 28.747 174.291 29.41C174.887 30.073 175.755 30.4045 176.895 30.4045H179.313C180.504 30.4045 181.434 30.0857 182.103 29.4482C182.798 28.7852 183.145 27.8545 183.145 26.656Z" fill="#340B77"/>
</svg>
