<?xml version="1.0" standalone="no"?>
<!DOCTYPE svg PUBLIC "-//W3C//DTD SVG 20010904//EN"
 "http://www.w3.org/TR/2001/REC-SVG-20010904/DTD/svg10.dtd">
<svg version="1.0" xmlns="http://www.w3.org/2000/svg"
 width="656.000000pt" height="656.000000pt" viewBox="0 0 656.000000 656.000000"
 preserveAspectRatio="xMidYMid meet">
<metadata>
Created by potrace 1.14, written by Peter Selinger 2001-2017
</metadata>
<g transform="translate(0.000000,656.000000) scale(0.100000,-0.100000)"
fill="#000000" stroke="none">
<path d="M1439 5953 c-4 -31 -1 -125 4 -130 5 -5 214 -8 670 -12 80 -1 86 -2
78 -18 -6 -10 -26 -63 -46 -118 -20 -55 -39 -107 -42 -115 -3 -8 -7 -17 -8
-20 -7 -28 -49 -147 -55 -155 -4 -5 -11 -21 -15 -35 -7 -24 -59 -171 -127
-360 -17 -47 -37 -100 -45 -119 -8 -18 -16 -39 -18 -45 -1 -6 -5 -18 -8 -26
-3 -8 -26 -73 -52 -145 -25 -71 -50 -139 -55 -150 -5 -11 -23 -60 -40 -110
-17 -49 -46 -130 -65 -180 -18 -49 -47 -130 -64 -180 -18 -49 -36 -99 -41
-110 -5 -11 -23 -60 -41 -110 -68 -193 -97 -273 -110 -296 -7 -13 -12 -26 -12
-29 0 -3 -1 -9 -2 -15 -10 -30 -183 -514 -194 -540 -5 -11 -23 -60 -41 -110
-44 -125 -48 -136 -61 -170 -7 -16 -13 -34 -15 -40 -3 -11 -64 -183 -93 -260
-32 -84 -34 -90 -37 -100 -1 -5 -57 -158 -124 -340 -67 -181 -123 -337 -125
-345 -2 -8 -24 -69 -48 -135 -25 -66 -60 -160 -77 -210 -18 -49 -36 -99 -40
-110 -12 -29 -52 -138 -54 -150 -2 -5 -8 -21 -14 -35 -6 -14 -24 -61 -39 -105
l-29 -80 -144 -2 c-80 -1 -160 -2 -177 -2 l-33 -1 0 -70 0 -70 2565 0 c2045 0
2565 3 2566 13 5 55 3 120 -4 124 -4 2 -85 5 -180 5 l-172 1 -63 161 c-35 89
-88 223 -118 300 -30 76 -52 141 -49 144 3 3 5 1 5 -4 0 -5 26 59 56 141 31
83 60 159 65 170 4 11 79 209 164 440 86 231 160 429 165 440 5 11 41 108 80
215 97 263 369 990 379 1015 14 31 162 428 166 445 2 8 27 76 55 150 49 128
83 219 215 575 30 83 62 166 70 185 8 19 57 152 110 295 53 143 107 289 121
325 l25 65 170 0 169 0 0 77 0 78 -2560 0 c-1408 0 -2560 -3 -2561 -7z m4490
-161 c-18 -46 -165 -443 -250 -671 -120 -325 -120 -325 -130 -346 -4 -11 -47
-126 -95 -255 -145 -391 -261 -703 -275 -735 -6 -16 -13 -35 -14 -41 -3 -12
-197 -533 -263 -704 -20 -52 -37 -99 -39 -105 -3 -13 -79 -219 -98 -265 -8
-19 -30 -80 -50 -135 -20 -55 -40 -109 -45 -120 -11 -25 -131 -346 -135 -360
-1 -5 -7 -21 -12 -35 -6 -14 -34 -89 -63 -168 -29 -78 -58 -142 -63 -142 -6 0
-7 3 -4 6 3 4 2 15 -4 26 -6 11 -12 29 -14 40 -3 12 -10 25 -16 29 -6 4 -8 12
-5 18 4 6 2 11 -4 11 -6 0 -9 4 -5 9 3 5 1 12 -5 16 -6 4 -8 10 -5 15 3 5 1
11 -5 15 -6 4 -8 10 -5 15 3 5 1 11 -5 15 -5 3 -10 15 -10 26 0 10 -5 19 -11
19 -5 0 -7 5 -4 10 3 6 2 10 -3 10 -5 0 -9 7 -10 15 -1 8 -3 22 -4 30 -1 8 -5
15 -10 15 -5 0 -6 5 -3 10 3 6 1 10 -4 10 -6 0 -11 8 -11 18 0 10 -6 24 -12
31 -11 11 -10 12 2 6 11 -6 10 -3 -3 12 -9 11 -14 23 -10 26 3 4 1 7 -6 7 -8
0 -11 7 -7 15 3 8 1 15 -4 15 -5 0 -6 7 -3 17 5 12 3 14 -7 8 -9 -6 -12 -4 -8
6 3 8 0 23 -8 34 -8 10 -14 29 -14 41 0 12 -5 24 -11 26 -6 2 -11 16 -11 31 0
16 -5 24 -11 20 -6 -4 -8 0 -4 10 4 10 2 17 -4 17 -6 0 -8 7 -5 16 3 8 2 12
-4 9 -6 -3 -10 3 -10 14 0 12 -6 21 -12 22 -9 0 -9 2 1 6 10 4 10 7 2 13 -7 4
-13 16 -14 28 0 11 -5 18 -9 16 -8 -5 -12 18 -9 45 2 7 -2 10 -8 6 -6 -3 -11
1 -11 10 0 15 -4 26 -29 74 -8 14 -8 20 -2 17 7 -4 8 -1 5 8 -3 9 -10 14 -14
11 -5 -3 -7 3 -6 12 2 10 -1 21 -6 24 -5 3 -10 16 -11 27 -1 12 -6 22 -11 22
-5 0 -7 3 -3 6 3 4 -1 13 -9 21 -12 12 -12 18 -2 31 10 12 10 14 1 8 -8 -4
-13 -1 -13 8 0 9 -5 16 -11 16 -8 0 -8 4 0 14 9 10 8 15 -4 19 -9 4 -12 13 -8
23 5 13 3 15 -7 9 -10 -6 -12 -3 -7 14 3 13 0 24 -7 27 -12 5 -14 10 -18 53
-1 11 -6 17 -10 15 -7 -5 -9 0 -8 21 0 3 -6 18 -14 34 -9 16 -12 31 -9 35 4 3
2 6 -4 6 -6 0 -14 7 -17 16 -4 10 -2 13 7 8 6 -4 5 1 -4 12 -9 10 -14 25 -11
33 3 9 0 11 -8 6 -10 -6 -12 -4 -7 8 4 10 2 17 -4 17 -6 0 -9 9 -6 19 3 12 -1
22 -10 25 -9 4 -13 14 -10 26 3 11 2 18 -3 15 -4 -3 -11 2 -14 11 -4 10 -2 13
7 9 6 -4 3 1 -7 9 -14 11 -15 16 -6 16 9 0 8 4 -5 13 -10 8 -15 19 -11 25 4 7
2 12 -4 12 -7 0 -10 7 -6 15 3 8 0 15 -5 15 -6 0 -9 9 -6 20 3 11 0 23 -5 27
-7 4 -8 1 -3 -7 5 -8 4 -11 -2 -7 -6 4 -13 16 -16 27 -3 11 -1 18 4 14 5 -3 9
0 9 5 0 6 -7 11 -16 11 -12 0 -15 6 -10 24 3 14 2 28 -4 31 -6 3 -7 -1 -4 -12
5 -17 5 -17 -6 0 -6 9 -8 22 -5 27 3 6 2 10 -4 10 -9 0 -27 56 -23 73 1 4 -2
7 -7 7 -5 0 -14 14 -20 31 -14 40 -14 42 2 34 6 -4 4 0 -5 8 -10 8 -15 17 -11
20 3 4 2 7 -4 7 -6 0 -14 7 -17 16 -4 10 -2 13 7 8 9 -6 9 -5 0 8 -7 8 -10 18
-6 21 3 4 1 7 -6 7 -8 0 -11 7 -7 15 3 9 -1 18 -9 21 -8 4 -15 15 -15 25 0 10
-9 35 -20 54 -11 20 -16 34 -10 30 6 -4 1 10 -10 29 -11 20 -17 36 -15 36 3 0
-1 10 -10 23 -8 13 -16 35 -17 49 -1 15 -6 24 -10 22 -7 -5 -12 18 -9 39 0 4
-4 7 -9 7 -6 0 -10 12 -10 26 0 15 -4 23 -10 19 -6 -4 -9 -3 -8 2 4 14 -26
103 -35 103 -4 0 -6 4 -2 9 3 5 0 13 -6 16 -5 4 -8 13 -5 21 3 8 2 14 -3 14
-7 0 -36 80 -31 89 1 2 -4 7 -10 11 -7 4 -13 19 -13 33 -1 14 -5 23 -9 21 -4
-3 -12 14 -18 37 -6 23 -15 49 -20 58 -7 14 -64 160 -75 191 -2 6 -15 37 -40
95 -9 22 -18 47 -20 55 -1 8 -10 31 -18 50 -45 104 -67 158 -67 165 0 4 -6 21
-14 38 -41 92 -205 520 -202 526 2 3 323 7 712 9 390 2 710 4 711 5 1 1 386 3
857 4 l855 2 -10 -27z m-3894 -1602 c48 -146 92 -278 98 -295 6 -16 12 -34 14
-40 1 -5 11 -35 23 -65 12 -30 23 -63 25 -72 2 -9 36 -112 75 -228 39 -116 73
-219 75 -228 2 -9 13 -42 25 -72 12 -30 23 -62 25 -70 2 -8 47 -143 99 -300
53 -157 95 -289 92 -295 -4 -11 -1330 -14 -1341 -3 -4 4 7 43 24 88 17 45 31
85 31 90 0 4 8 25 17 46 9 22 18 44 19 49 1 6 27 78 57 160 31 83 74 202 97
265 22 63 44 122 47 130 3 8 7 18 7 22 1 3 4 10 9 14 4 4 7 17 7 29 0 11 4 25
8 30 5 6 19 39 31 75 12 36 25 72 28 80 4 8 7 17 8 20 8 32 30 88 39 99 6 8 9
16 7 18 -1 2 2 16 7 31 10 26 49 133 142 392 45 126 46 130 50 145 1 6 13 34
26 63 12 28 21 52 18 52 -3 0 0 9 6 21 7 11 13 19 14 17 2 -1 43 -122 91 -268z
m621 -1843 c2 -2 31 -84 65 -183 33 -98 63 -186 66 -194 3 -8 7 -19 9 -25 1
-5 43 -129 94 -275 50 -146 93 -269 94 -275 4 -20 18 -61 31 -90 7 -16 31 -88
55 -160 23 -71 53 -158 66 -193 13 -34 24 -64 24 -67 1 -7 6 -23 28 -87 l19
-56 -1308 0 -1309 0 7 27 c3 14 12 40 19 56 7 17 55 152 108 300 53 149 101
279 105 290 5 11 19 49 32 85 12 36 27 76 32 90 6 14 11 30 13 35 4 15 105
297 117 325 5 14 11 30 13 35 1 6 24 69 49 140 26 72 54 151 63 177 l16 47 55
3 c85 5 1432 0 1437 -5z m1808 -793 c3 -8 2 -12 -4 -9 -6 3 -10 10 -10 16 0
14 7 11 14 -7z"/>
</g>
</svg>
